<svg t="1625221134463" class="icon" viewBox="0 0 1024 1024" version="1.1" xmlns="http://www.w3.org/2000/svg" p-id="18957" width="200" height="200"><path d="M864.1024 304.4352l-93.7984 88.064a25.22624 25.22624 0 0 1-37.8368-3.7376l-177.0496-248.32c-20.8896-29.3376-64.7168-28.4672-84.48 1.6384l-170.4448 259.584c-8.8064 13.4144-27.648 15.3088-39.0144 3.9936l-97.28-97.4336c-33.8944-33.9456-91.6992-6.8096-87.1936 41.0112l48.7936 515.8912c2.5088 26.3168 24.576 46.3872 50.9952 46.3872H835.072c25.856 0 47.616-19.2512 50.7904-44.9024l64.1024-518.5024c5.888-47.616-50.944-76.4928-85.8624-43.6736z" fill="#FCAB08" p-id="18958"></path><path d="M927.2832 298.9568c-18.3808-11.9296-44.032-12.4928-63.1296 5.4272l-93.7984 88.064a25.22624 25.22624 0 0 1-37.8368-3.7376l-177.0496-248.32c-20.8896-29.3376-64.7168-28.4672-84.48 1.6384l-170.496 259.6352c-8.8064 13.4144-27.648 15.3088-39.0144 3.9936l-97.28-97.4336c-33.8944-33.9456-91.6992-6.8096-87.1936 41.0112l48.7936 515.8912c0.1536 1.8432 0.4608 3.584 0.8192 5.376a50.85184 50.85184 0 0 0 27.9552 8.3456h658.2784c25.856 0 47.616-19.2512 50.7904-44.9024L927.744 315.3408c0.7168-5.7344 0.512-11.2128-0.4608-16.384z" fill="#FCB61A" p-id="18959"></path><path d="M905.3184 290.8672c-13.9776-1.8432-28.928 2.048-41.216 13.568l-93.7984 88.064a25.22624 25.22624 0 0 1-37.8368-3.7376l-37.12-52.0704c-2.7648-1.6896-5.3248-3.9424-7.3216-6.7584L545.4848 130.048c-22.6816-18.0736-57.5488-13.9264-74.5984 12.032l-170.3936 259.584c-8.8064 13.4144-27.648 15.3088-39.0144 3.9936l-97.28-97.4336c-33.8944-33.9456-91.6992-6.8096-87.1936 41.0112l47.5136 502.784c2.56 0.4096 5.12 0.6656 7.7824 0.6656h658.2784c25.856 0 47.6672-19.2512 50.7904-44.9024l63.9488-516.9152z" fill="#FFB839" p-id="18960"></path><path d="M743.7312 413.3888c-7.424 0-14.5408 2.816-19.968 7.8848L701.8496 440.32c-18.5344 16.128-46.8992 13.0048-61.4912-6.7584l-24.32-32.9728-113.8176-153.5488c-18.1248-13.8752-45.9776-10.7008-59.5456 9.216l-136.192 199.4752c-7.0144 10.2912-22.1184 11.776-31.1296 3.072L197.632 383.9488c-27.0848-26.112-73.2672-5.2224-69.632 31.488l37.9904 386.2528c2.048 0.3072 4.096 0.512 6.1952 0.512h525.824c20.6336 0 38.0416-14.7968 40.6016-34.5088l41.3184-321.3824c2.2528-17.4592-11.3664-32.8704-28.928-32.8704h-7.2704z" fill="#FEC943" p-id="18961"></path><path d="M734.5664 510.2592c-3.072-16.8448-12.4928-31.4368-26.5728-41.1648-14.08-9.728-31.0784-13.4144-47.872-10.2912-16.7936 3.072-31.4368 12.4928-41.1648 26.5728l-101.12 146.2784-101.12-146.3296c-9.728-14.08-24.32-23.5008-41.1648-26.5728-16.8448-3.072-33.8432 0.5632-47.872 10.2912-14.08 9.728-23.5008 24.32-26.5728 41.1648-3.072 16.8448 0.5632 33.8432 10.2912 47.872l137.8304 199.3728c15.5648 22.528 41.216 35.9424 68.5568 35.9424 27.392 0 52.992-13.4656 68.5568-35.9424L724.1728 558.08c9.7792-14.0288 13.4144-31.0272 10.3936-47.8208z" fill="#EA9603" p-id="18962"></path><path d="M716.9024 513.4848a45.85472 45.85472 0 0 0-19.1488-29.6448 45.73696 45.73696 0 0 0-34.4576-7.424 45.85472 45.85472 0 0 0-29.6448 19.1488l-115.8656 167.5776-115.8144-167.6288a45.9264 45.9264 0 0 0-29.6448-19.1488c-12.0832-2.2016-24.3712 0.4096-34.4576 7.424a45.9264 45.9264 0 0 0-19.1488 29.6448c-2.2016 12.0832 0.4096 24.3712 7.424 34.4576l137.8304 199.3728a65.42848 65.42848 0 0 0 107.6224 0l137.8304-199.3728a45.3632 45.3632 0 0 0 7.4752-34.4064z" fill="#F24500" p-id="18963"></path><path d="M517.8368 760.2176c-16.4352 0-31.8464-8.0896-41.1648-21.6064l-137.8304-199.3728a30.78144 30.78144 0 0 1 7.7824-42.752 30.78144 30.78144 0 0 1 42.752 7.7824l128.4608 185.856 128.4608-185.856a30.67904 30.67904 0 0 1 42.752-7.7824 30.67904 30.67904 0 0 1 7.7824 42.752l-137.8304 199.3728a50.02752 50.02752 0 0 1-41.1648 21.6064z" fill="#FF5122" p-id="18964"></path></svg>